<svg xmlns="http://www.w3.org/2000/svg" viewBox="0 0 48 48" width="48" height="48">
  <rect width="48" height="48" rx="10" fill="#08AA86"/>
  <g transform="translate(4, 3) scale(0.83)">
    <path fill="white" d="M48.1,12.1L24.5,1.5c-0.2-0.1-0.4-0.1-0.6,0L7.4,8.9C7,9.1,6.9,9.5,7,9.9c0.2,0.4,0.6,0.5,1,0.4L24.2,3
      L46,12.8l-18.1,8c0.2,0.5,0.5,1,0.5,1.6L47.3,14l0,25L25.4,49.3V26.1c-1,0.1-0.6,0.1-0.9,0.1c-0.4,0-1.1-0.1-1.1-0.2
      v23.4L1.5,39.3l0.1-25.2l18.8,8.3c0-0.6,0.1-1.1,0.3-1.6L1.1,12.3c-0.2-0.1-0.5-0.1-0.7,0.1C0.1,12.5,0,12.7,0,13l0,26.8
      c0,0.3,0.2,0.6,0.4,0.7l23.3,10.8c0.1,0,0.2,0.1,0.3,0.1c0.1,0,0.2,0,0.3-0.1L48,40.2c0.3-0.1,0.4-0.4,0.4-0.7l0.2-26.7
      C48.6,12.5,48.4,12.2,48.1,12.1z"/>
    <circle fill="white" cx="24.3" cy="22.8" r="2.1"/>
  </g>
</svg>
