<svg xmlns="http://www.w3.org/2000/svg" xmlns:xlink="http://www.w3.org/1999/xlink" version="1.1" id="Layer_1" x="0px" y="0px" viewBox="-1 -2 232 58" style="enable-background:new -1 -2 232 58;" xml:space="preserve">
<style type="text/css">
	.st0{fill:#08AA86;}
	.st1{fill:#8C8E8E;}
	.st2{fill:#343F49;}
</style>
<g>
	<g>
		<path class="st0" d="M48.1,12.1L24.5,1.5c-0.2-0.1-0.4-0.1-0.6,0L7.4,8.9C7,9.1,6.9,9.5,7,9.9c0.2,0.4,0.6,0.5,1,0.4L24.2,3    L46,12.8l-18.1,8c0.2,0.5,0.5,1,0.5,1.6c0,0,0,0,0,0L47.3,14l0,25L25.4,49.3V26.1c-1,0.1-0.6,0.1-0.9,0.1c-0.4,0-1.1-0.1-1.1-0.2    v23.4L1.5,39.3l0.1-25.2l18.8,8.3c0-0.6,0.1-1.1,0.3-1.6L1.1,12.3c-0.2-0.1-0.5-0.1-0.7,0.1C0.1,12.5,0,12.7,0,13l0,26.8    c0,0.3,0.2,0.6,0.4,0.7l23.3,10.8c0.1,0,0.2,0.1,0.3,0.1c0.1,0,0.2,0,0.3-0.1L48,40.2c0.3-0.1,0.4-0.4,0.4-0.7l0.2-26.7    C48.6,12.5,48.4,12.2,48.1,12.1z"/>
		<circle class="st0" cx="24.3" cy="22.8" r="2.1"/>
	</g>
	<g>
		<g>
			<g>
				<path class="st1" d="M62.2,53.7c-0.3,0-0.5-0.2-0.5-0.5V0.5c0-0.3,0.2-0.5,0.5-0.5s0.5,0.2,0.5,0.5v52.7      C62.7,53.4,62.5,53.7,62.2,53.7z"/>
			</g>
			<g>
				<path class="st2" d="M80.7,6.6c-2.8,0-4.4,1.5-4.4,4.6v9.4c0,3.2,1.5,4.6,4.5,4.6c3.6,0,3.9-2.3,4.1-3.7c0.1-0.5,0.4-0.8,1-0.8      c0.7,0,1,0.2,1,1.2c0,2.8-2.3,5.1-6.3,5.1c-3.4,0-6.3-1.8-6.3-6.5v-9.4c0-4.7,2.9-6.5,6.4-6.5c4,0,6.2,2.3,6.2,5.1      c0,1-0.3,1.2-1,1.2s-1-0.3-1-0.8C84.9,8.9,84.3,6.6,80.7,6.6z"/>
				<path class="st2" d="M90.4,5.5c0-0.4,0.3-0.7,0.8-0.7h5.4c3.5,0,6.6,1.4,6.6,6c0,3.8-2.1,5.4-4.7,5.9l4.7,9      c0.1,0.1,0.1,0.3,0.1,0.4c0,0.5-0.6,1-1.2,1c-0.5,0-0.8-0.6-1.1-1.1l-4.7-9.1h-3.9v9.3c0,0.5-0.5,0.8-1,0.8c-0.5,0-1-0.3-1-0.8      V5.5z M92.4,6.6v8.5h4.1c2.7,0,4.6-1.2,4.6-4.3c0-3-1.9-4.2-4.6-4.2H92.4z"/>
				<path class="st2" d="M117.3,4.7c0.5,0,0.8,0.5,0.8,0.9c0,0.5-0.2,1-0.8,1h-5.1v19.5c0,0.5-0.5,0.8-1,0.8c-0.5,0-1-0.3-1-0.8V6.6      h-5.1c-0.5,0-0.8-0.5-0.8-0.9c0-0.5,0.2-0.9,0.8-0.9H117.3z"/>
				<path class="st2" d="M120.8,5.5c0-0.5,0.5-0.7,1-0.7c0.5,0,1,0.2,1,0.7v20.7c0,0.5-0.5,0.8-1,0.8c-0.5,0-1-0.3-1-0.8V5.5z"/>
				<path class="st2" d="M135,5.5c0-0.5,0.5-0.8,0.9-0.8h5c3.4,0,6.2,0.9,6.2,5.2c0,2.5-1,4.3-2.6,5c1.8,0.8,3.1,2.1,3.1,5.2v0.5      c0,4.6-2.6,6.2-6,6.2h-5.7c-0.6,0-0.9-0.4-0.9-0.8V5.5z M136.9,14h4c2.8,0,4.1-1,4.1-3.9c0-2.8-1.8-3.5-4.2-3.5h-3.9V14z       M141.3,25.1c2.6,0,4.2-1.4,4.2-4.5V20c0-3.2-1.6-4.3-4.2-4.3h-4.4v9.3H141.3z"/>
			</g>
			<g>
				<path class="st1" d="M76.2,35c-0.8,0-1.2,0.4-1.2,1.3V39c0,0.9,0.4,1.3,1.3,1.3c1,0,1.1-0.6,1.2-1.1c0-0.1,0.1-0.2,0.3-0.2      c0.2,0,0.3,0.1,0.3,0.4c0,0.8-0.7,1.5-1.8,1.5c-1,0-1.8-0.5-1.8-1.8v-2.7c0-1.3,0.8-1.8,1.8-1.8c1.1,0,1.8,0.7,1.8,1.4      c0,0.3-0.1,0.3-0.3,0.3c-0.2,0-0.3-0.1-0.3-0.2C77.4,35.7,77.2,35,76.2,35z"/>
				<path class="st1" d="M79.6,37.4H81c0.1,0,0.2,0.1,0.2,0.3c0,0.1-0.1,0.2-0.2,0.2h-1.4v2.4h2.8c0.1,0,0.2,0.1,0.2,0.3      c0,0.1-0.1,0.3-0.2,0.3h-3.1c-0.1,0-0.3-0.1-0.3-0.2v-5.9c0-0.1,0.1-0.2,0.3-0.2h3.1c0.2,0,0.2,0.1,0.2,0.3      c0,0.1-0.1,0.3-0.2,0.3h-2.8V37.4z"/>
				<path class="st1" d="M86.4,40.5L84,35.8v4.8c0,0.1-0.1,0.2-0.3,0.2c-0.1,0-0.3-0.1-0.3-0.2v-5.9c0-0.2,0.1-0.2,0.3-0.2      c0.2,0,0.3,0.2,0.4,0.4l2.3,4.6v-4.8c0-0.1,0.1-0.2,0.3-0.2c0.1,0,0.3,0.1,0.3,0.2v5.9c0,0.1-0.1,0.2-0.3,0.2      C86.7,40.8,86.5,40.7,86.4,40.5z"/>
				<path class="st1" d="M91.6,34.5c0.1,0,0.2,0.1,0.2,0.3c0,0.1-0.1,0.3-0.2,0.3h-1.4v5.6c0,0.1-0.1,0.2-0.3,0.2      c-0.1,0-0.3-0.1-0.3-0.2V35h-1.5C88,35,88,34.9,88,34.8c0-0.1,0.1-0.3,0.2-0.3H91.6z"/>
				<path class="st1" d="M92.7,34.7c0-0.1,0.1-0.2,0.2-0.2h1.5c1,0,1.9,0.4,1.9,1.7c0,1.1-0.6,1.5-1.3,1.7l1.3,2.6c0,0,0,0.1,0,0.1      c0,0.1-0.2,0.3-0.3,0.3c-0.1,0-0.2-0.2-0.3-0.3l-1.3-2.6h-1.1v2.7c0,0.1-0.1,0.2-0.3,0.2c-0.1,0-0.3-0.1-0.3-0.2V34.7z M93.3,35      v2.4h1.2c0.8,0,1.3-0.3,1.3-1.2c0-0.9-0.5-1.2-1.3-1.2H93.3z"/>
				<path class="st1" d="M97.9,37.4h1.4c0.1,0,0.2,0.1,0.2,0.3c0,0.1-0.1,0.2-0.2,0.2h-1.4v2.4h2.8c0.1,0,0.2,0.1,0.2,0.3      c0,0.1-0.1,0.3-0.2,0.3h-3.1c-0.1,0-0.3-0.1-0.3-0.2v-5.9c0-0.1,0.1-0.2,0.3-0.2h3.1c0.2,0,0.2,0.1,0.2,0.3      c0,0.1-0.1,0.3-0.2,0.3h-2.8V37.4z"/>
				<path class="st1" d="M105.3,34.5c1,0,1.8,0.5,1.8,1.8V39c0,1.3-0.8,1.8-1.8,1.8h-1.5c-0.2,0-0.3-0.1-0.3-0.2v-5.9      c0-0.1,0.1-0.2,0.3-0.2H105.3z M104.1,35v5.3h1.2c0.8,0,1.2-0.4,1.2-1.3v-2.6c0-0.9-0.5-1.3-1.2-1.3H104.1z"/>
				<path class="st1" d="M109,37.4h1.4c0.1,0,0.2,0.1,0.2,0.3c0,0.1-0.1,0.2-0.2,0.2H109v2.4h2.8c0.1,0,0.2,0.1,0.2,0.3      c0,0.1-0.1,0.3-0.2,0.3h-3.1c-0.1,0-0.3-0.1-0.3-0.2v-5.9c0-0.1,0.1-0.2,0.3-0.2h3.1c0.2,0,0.2,0.1,0.2,0.3      c0,0.1-0.1,0.3-0.2,0.3H109V37.4z"/>
				<path class="st1" d="M114.7,34.7c0-0.1,0.1-0.2,0.2-0.2h1.5c1,0,1.9,0.4,1.9,1.7c0,1.1-0.6,1.5-1.3,1.7l1.3,2.6c0,0,0,0.1,0,0.1      c0,0.1-0.2,0.3-0.3,0.3c-0.1,0-0.2-0.2-0.3-0.3l-1.3-2.6h-1.1v2.7c0,0.1-0.1,0.2-0.3,0.2c-0.1,0-0.3-0.1-0.3-0.2V34.7z       M115.2,35v2.4h1.2c0.8,0,1.3-0.3,1.3-1.2c0-0.9-0.5-1.2-1.3-1.2H115.2z"/>
				<path class="st1" d="M119.9,37.4h1.4c0.1,0,0.2,0.1,0.2,0.3c0,0.1-0.1,0.2-0.2,0.2h-1.4v2.4h2.8c0.1,0,0.2,0.1,0.2,0.3      c0,0.1-0.1,0.3-0.2,0.3h-3.1c-0.1,0-0.3-0.1-0.3-0.2v-5.9c0-0.1,0.1-0.2,0.3-0.2h3.1c0.2,0,0.2,0.1,0.2,0.3      c0,0.1-0.1,0.3-0.2,0.3h-2.8V37.4z"/>
				<path class="st1" d="M126.4,39.1c0-1.9-2.9-1-2.9-3.1c0-1.3,1-1.6,1.8-1.6c0.6,0,1.5,0.2,1.5,0.5c0,0.1-0.1,0.3-0.3,0.3      c-0.2,0-0.4-0.3-1.2-0.3c-0.6,0-1.3,0.2-1.3,1c0,1.6,2.9,0.7,2.9,3.1c0,1.2-0.8,1.8-1.8,1.8c-1.1,0-1.8-0.6-1.8-0.9      c0-0.1,0.1-0.3,0.3-0.3c0.2,0,0.4,0.7,1.5,0.7C125.9,40.3,126.4,39.9,126.4,39.1z"/>
				<path class="st1" d="M130.7,39.1c0-1.9-2.9-1-2.9-3.1c0-1.3,1-1.6,1.8-1.6c0.6,0,1.5,0.2,1.5,0.5c0,0.1-0.1,0.3-0.3,0.3      c-0.2,0-0.4-0.3-1.2-0.3c-0.6,0-1.3,0.2-1.3,1c0,1.6,2.9,0.7,2.9,3.1c0,1.2-0.8,1.8-1.8,1.8c-1.1,0-1.8-0.6-1.8-0.9      c0-0.1,0.1-0.3,0.3-0.3c0.2,0,0.4,0.7,1.5,0.7C130.3,40.3,130.7,39.9,130.7,39.1z"/>
				<path class="st1" d="M132.3,39v-2.7c0-1.3,0.8-1.8,1.8-1.8s1.8,0.5,1.8,1.8V39c0,1.3-0.8,1.8-1.8,1.8S132.3,40.4,132.3,39z       M135.3,36.3c0-0.9-0.5-1.3-1.2-1.3s-1.2,0.4-1.2,1.3V39c0,0.9,0.5,1.3,1.2,1.3s1.2-0.4,1.2-1.3V36.3z"/>
				<path class="st1" d="M140.2,34.7c0-0.1,0.1-0.2,0.3-0.2c0.1,0,0.3,0.1,0.3,0.2V39c0,1.3-0.8,1.8-1.8,1.8c-1,0-1.8-0.5-1.8-1.8      v-4.3c0-0.1,0.1-0.2,0.3-0.2c0.1,0,0.3,0.1,0.3,0.2V39c0,0.9,0.5,1.3,1.2,1.3s1.2-0.4,1.2-1.3V34.7z"/>
				<path class="st1" d="M142.2,34.7c0-0.1,0.1-0.2,0.2-0.2h1.5c1,0,1.9,0.4,1.9,1.7c0,1.1-0.6,1.5-1.3,1.7l1.3,2.6c0,0,0,0.1,0,0.1      c0,0.1-0.2,0.3-0.3,0.3c-0.1,0-0.2-0.2-0.3-0.3l-1.3-2.6h-1.1v2.7c0,0.1-0.1,0.2-0.3,0.2c-0.1,0-0.3-0.1-0.3-0.2V34.7z       M142.7,35v2.4h1.2c0.8,0,1.3-0.3,1.3-1.2c0-0.9-0.5-1.2-1.3-1.2H142.7z"/>
				<path class="st1" d="M148.5,35c-0.8,0-1.2,0.4-1.2,1.3V39c0,0.9,0.4,1.3,1.3,1.3c1,0,1.1-0.6,1.2-1.1c0-0.1,0.1-0.2,0.3-0.2      c0.2,0,0.3,0.1,0.3,0.4c0,0.8-0.7,1.5-1.8,1.5c-1,0-1.8-0.5-1.8-1.8v-2.7c0-1.3,0.8-1.8,1.8-1.8c1.1,0,1.8,0.7,1.8,1.4      c0,0.3-0.1,0.3-0.3,0.3c-0.2,0-0.3-0.1-0.3-0.2C149.7,35.7,149.6,35,148.5,35z"/>
				<path class="st1" d="M151.9,37.4h1.4c0.1,0,0.2,0.1,0.2,0.3c0,0.1-0.1,0.2-0.2,0.2h-1.4v2.4h2.8c0.1,0,0.2,0.1,0.2,0.3      c0,0.1-0.1,0.3-0.2,0.3h-3.1c-0.1,0-0.3-0.1-0.3-0.2v-5.9c0-0.1,0.1-0.2,0.3-0.2h3.1c0.2,0,0.2,0.1,0.2,0.3      c0,0.1-0.1,0.3-0.2,0.3h-2.8V37.4z"/>
				<path class="st1" d="M158.5,39.1c0-1.9-2.9-1-2.9-3.1c0-1.3,1-1.6,1.8-1.6c0.6,0,1.5,0.2,1.5,0.5c0,0.1-0.1,0.3-0.3,0.3      c-0.2,0-0.4-0.3-1.2-0.3c-0.6,0-1.3,0.2-1.3,1c0,1.6,2.9,0.7,2.9,3.1c0,1.2-0.8,1.8-1.8,1.8c-1.1,0-1.8-0.6-1.8-0.9      c0-0.1,0.1-0.3,0.3-0.3c0.2,0,0.4,0.7,1.5,0.7C158,40.3,158.5,39.9,158.5,39.1z"/>
				<path class="st1" d="M163.7,34.5c1,0,1.8,0.5,1.8,1.8V39c0,1.3-0.8,1.8-1.8,1.8h-1.5c-0.2,0-0.3-0.1-0.3-0.2v-5.9      c0-0.1,0.1-0.2,0.3-0.2H163.7z M162.5,35v5.3h1.2c0.8,0,1.2-0.4,1.2-1.3v-2.6c0-0.9-0.5-1.3-1.2-1.3H162.5z"/>
				<path class="st1" d="M167.4,37.4h1.4c0.1,0,0.2,0.1,0.2,0.3c0,0.1-0.1,0.2-0.2,0.2h-1.4v2.4h2.8c0.1,0,0.2,0.1,0.2,0.3      c0,0.1-0.1,0.3-0.2,0.3h-3.1c-0.1,0-0.3-0.1-0.3-0.2v-5.9c0-0.1,0.1-0.2,0.3-0.2h3.1c0.2,0,0.2,0.1,0.2,0.3      c0,0.1-0.1,0.3-0.2,0.3h-2.8V37.4z"/>
				<path class="st1" d="M173.9,39.1c0-1.9-2.9-1-2.9-3.1c0-1.3,1-1.6,1.8-1.6c0.6,0,1.5,0.2,1.5,0.5c0,0.1-0.1,0.3-0.3,0.3      c-0.2,0-0.4-0.3-1.2-0.3c-0.6,0-1.3,0.2-1.3,1c0,1.6,2.9,0.7,2.9,3.1c0,1.2-0.8,1.8-1.8,1.8c-1.1,0-1.8-0.6-1.8-0.9      c0-0.1,0.1-0.3,0.3-0.3c0.2,0,0.4,0.7,1.5,0.7C173.4,40.3,173.9,39.9,173.9,39.1z"/>
				<path class="st1" d="M180.5,34.5c0.1,0,0.2,0.1,0.2,0.3c0,0.1-0.1,0.3-0.2,0.3h-1.4v5.6c0,0.1-0.1,0.2-0.3,0.2      c-0.1,0-0.3-0.1-0.3-0.2V35H177c-0.1,0-0.2-0.1-0.2-0.3c0-0.1,0.1-0.3,0.2-0.3H180.5z"/>
				<path class="st1" d="M182.1,37.4h1.4c0.1,0,0.2,0.1,0.2,0.3c0,0.1-0.1,0.2-0.2,0.2h-1.4v2.4h2.8c0.1,0,0.2,0.1,0.2,0.3      c0,0.1-0.1,0.3-0.2,0.3h-3.1c-0.1,0-0.3-0.1-0.3-0.2v-5.9c0-0.1,0.1-0.2,0.3-0.2h3.1c0.2,0,0.2,0.1,0.2,0.3      c0,0.1-0.1,0.3-0.2,0.3h-2.8V37.4z"/>
				<path class="st1" d="M187.6,35c-0.8,0-1.2,0.4-1.2,1.3V39c0,0.9,0.4,1.3,1.3,1.3c1,0,1.1-0.6,1.2-1.1c0-0.1,0.1-0.2,0.3-0.2      c0.2,0,0.3,0.1,0.3,0.4c0,0.8-0.7,1.5-1.8,1.5c-1,0-1.8-0.5-1.8-1.8v-2.7c0-1.3,0.8-1.8,1.8-1.8c1.1,0,1.8,0.7,1.8,1.4      c0,0.3-0.1,0.3-0.3,0.3c-0.2,0-0.3-0.1-0.3-0.2C188.8,35.7,188.7,35,187.6,35z"/>
				<path class="st1" d="M193.5,37.8H191v2.8c0,0.1-0.1,0.2-0.3,0.2c-0.1,0-0.3-0.1-0.3-0.2v-5.9c0-0.1,0.1-0.2,0.3-0.2      c0.1,0,0.3,0.1,0.3,0.2v2.6h2.5v-2.6c0-0.1,0.1-0.2,0.3-0.2c0.1,0,0.3,0.1,0.3,0.2v5.9c0,0.1-0.1,0.2-0.3,0.2      c-0.1,0-0.3-0.1-0.3-0.2V37.8z"/>
				<path class="st1" d="M198.5,40.5l-2.4-4.7v4.8c0,0.1-0.1,0.2-0.3,0.2c-0.1,0-0.3-0.1-0.3-0.2v-5.9c0-0.2,0.1-0.2,0.3-0.2      c0.2,0,0.3,0.2,0.4,0.4l2.3,4.6v-4.8c0-0.1,0.1-0.2,0.3-0.2c0.1,0,0.3,0.1,0.3,0.2v5.9c0,0.1-0.1,0.2-0.3,0.2      C198.7,40.8,198.5,40.7,198.5,40.5z"/>
				<path class="st1" d="M200.4,39v-2.7c0-1.3,0.8-1.8,1.8-1.8s1.8,0.5,1.8,1.8V39c0,1.3-0.8,1.8-1.8,1.8S200.4,40.4,200.4,39z       M203.4,36.3c0-0.9-0.5-1.3-1.2-1.3s-1.2,0.4-1.2,1.3V39c0,0.9,0.5,1.3,1.2,1.3s1.2-0.4,1.2-1.3V36.3z"/>
				<path class="st1" d="M205.6,40.8c-0.1,0-0.3-0.1-0.3-0.2v-5.9c0-0.1,0.1-0.2,0.3-0.2c0.1,0,0.3,0.1,0.3,0.2v5.6h2.5      c0.1,0,0.2,0.1,0.2,0.3c0,0.1-0.1,0.3-0.2,0.3H205.6z"/>
				<path class="st1" d="M209.2,39v-2.7c0-1.3,0.8-1.8,1.8-1.8s1.8,0.5,1.8,1.8V39c0,1.3-0.8,1.8-1.8,1.8S209.2,40.4,209.2,39z       M212.2,36.3c0-0.9-0.5-1.3-1.2-1.3s-1.2,0.4-1.2,1.3V39c0,0.9,0.5,1.3,1.2,1.3s1.2-0.4,1.2-1.3V36.3z"/>
				<path class="st1" d="M215.8,35c-0.8,0-1.2,0.4-1.2,1.3V39c0,0.9,0.5,1.3,1.2,1.3s1.2-0.4,1.2-1.3v-1h-1.2      c-0.1,0-0.2-0.1-0.2-0.3c0-0.1,0.1-0.2,0.2-0.2h1.5c0.1,0,0.2,0.1,0.2,0.2V39c0,1.3-0.8,1.8-1.8,1.8S214,40.4,214,39v-2.7      c0-1.3,0.8-1.8,1.8-1.8c1.1,0,1.8,0.6,1.8,1.5c0,0.2-0.1,0.3-0.3,0.3c-0.1,0-0.3-0.1-0.3-0.2C216.9,35.4,216.5,35,215.8,35z"/>
				<path class="st1" d="M218.8,34.7c0-0.1,0.1-0.2,0.3-0.2c0.1,0,0.3,0.1,0.3,0.2v5.9c0,0.1-0.1,0.2-0.3,0.2      c-0.1,0-0.3-0.1-0.3-0.2V34.7z"/>
				<path class="st1" d="M221.3,37.4h1.4c0.1,0,0.2,0.1,0.2,0.3c0,0.1-0.1,0.2-0.2,0.2h-1.4v2.4h2.8c0.1,0,0.2,0.1,0.2,0.3      c0,0.1-0.1,0.3-0.2,0.3H221c-0.1,0-0.3-0.1-0.3-0.2v-5.9c0-0.1,0.1-0.2,0.3-0.2h3.1c0.2,0,0.2,0.1,0.2,0.3      c0,0.1-0.1,0.3-0.2,0.3h-2.8V37.4z"/>
				<path class="st1" d="M227.8,39.1c0-1.9-2.9-1-2.9-3.1c0-1.3,1-1.6,1.8-1.6c0.6,0,1.5,0.2,1.5,0.5c0,0.1-0.1,0.3-0.3,0.3      c-0.2,0-0.4-0.3-1.2-0.3c-0.6,0-1.3,0.2-1.3,1c0,1.6,2.9,0.7,2.9,3.1c0,1.2-0.8,1.8-1.8,1.8c-1.1,0-1.8-0.6-1.8-0.9      c0-0.1,0.1-0.3,0.3-0.3c0.2,0,0.4,0.7,1.5,0.7C227.4,40.3,227.8,39.9,227.8,39.1z"/>
				<path class="st1" d="M75,47.8h1.4c0.1,0,0.2,0.1,0.2,0.3c0,0.1-0.1,0.2-0.2,0.2H75v2.4h2.8c0.1,0,0.2,0.1,0.2,0.3      c0,0.1-0.1,0.3-0.2,0.3h-3.1c-0.1,0-0.3-0.1-0.3-0.2v-5.9c0-0.1,0.1-0.2,0.3-0.2h3.1c0.2,0,0.2,0.1,0.2,0.3      c0,0.1-0.1,0.3-0.2,0.3H75V47.8z"/>
				<path class="st1" d="M82.1,44.8c0.1,0,0.2,0.1,0.2,0.3c0,0.1-0.1,0.3-0.2,0.3h-1.4v5.6c0,0.1-0.1,0.2-0.3,0.2      c-0.1,0-0.3-0.1-0.3-0.2v-5.6h-1.5c-0.1,0-0.2-0.1-0.2-0.3c0-0.1,0.1-0.3,0.2-0.3H82.1z"/>
				<path class="st1" d="M86.7,44.8c1,0,1.8,0.5,1.8,1.8v2.6c0,1.3-0.8,1.8-1.8,1.8h-1.5c-0.2,0-0.3-0.1-0.3-0.2v-5.9      c0-0.1,0.1-0.2,0.3-0.2H86.7z M85.5,45.4v5.3h1.2c0.8,0,1.2-0.4,1.2-1.3v-2.6c0-0.9-0.5-1.3-1.2-1.3H85.5z"/>
				<path class="st1" d="M90.4,47.8h1.4c0.1,0,0.2,0.1,0.2,0.3c0,0.1-0.1,0.2-0.2,0.2h-1.4v2.4h2.8c0.1,0,0.2,0.1,0.2,0.3      c0,0.1-0.1,0.3-0.2,0.3H90c-0.1,0-0.3-0.1-0.3-0.2v-5.9c0-0.1,0.1-0.2,0.3-0.2h3.1c0.2,0,0.2,0.1,0.2,0.3c0,0.1-0.1,0.3-0.2,0.3      h-2.8V47.8z"/>
				<path class="st1" d="M96.3,51.2c-0.1,0-0.3-0.1-0.3-0.2v-5.9c0-0.1,0.1-0.2,0.3-0.2c0.1,0,0.3,0.1,0.3,0.2v5.6h2.5      c0.1,0,0.2,0.1,0.2,0.3c0,0.1-0.1,0.3-0.2,0.3H96.3z"/>
				<path class="st1" d="M99.7,44.7L99.6,46c0,0.1-0.1,0.2-0.2,0.2c-0.1,0-0.2-0.1-0.2-0.2l-0.1-1.3c0-0.1,0.1-0.2,0.3-0.2      C99.5,44.5,99.7,44.6,99.7,44.7z"/>
				<path class="st1" d="M100.7,45.1c0-0.1,0.1-0.2,0.3-0.2c0.1,0,0.3,0.1,0.3,0.2v5.9c0,0.1-0.1,0.2-0.3,0.2      c-0.1,0-0.3-0.1-0.3-0.2V45.1z"/>
				<path class="st1" d="M105.7,50.8l-2.4-4.7v4.8c0,0.1-0.1,0.2-0.3,0.2c-0.1,0-0.3-0.1-0.3-0.2v-5.9c0-0.2,0.1-0.2,0.3-0.2      c0.2,0,0.3,0.2,0.4,0.4l2.3,4.6v-4.8c0-0.1,0.1-0.2,0.3-0.2c0.1,0,0.3,0.1,0.3,0.2v5.9c0,0.1-0.1,0.2-0.3,0.2      C105.9,51.2,105.7,51,105.7,50.8z"/>
				<path class="st1" d="M110.7,50.8l-2.4-4.7v4.8c0,0.1-0.1,0.2-0.3,0.2c-0.1,0-0.3-0.1-0.3-0.2v-5.9c0-0.2,0.1-0.2,0.3-0.2      c0.2,0,0.3,0.2,0.4,0.4l2.3,4.6v-4.8c0-0.1,0.1-0.2,0.3-0.2c0.1,0,0.3,0.1,0.3,0.2v5.9c0,0.1-0.1,0.2-0.3,0.2      C110.9,51.2,110.7,51,110.7,50.8z"/>
				<path class="st1" d="M112.6,49.4v-2.7c0-1.3,0.8-1.8,1.8-1.8s1.8,0.5,1.8,1.8v2.7c0,1.3-0.8,1.8-1.8,1.8S112.6,50.7,112.6,49.4z       M115.6,46.7c0-0.9-0.5-1.3-1.2-1.3s-1.2,0.4-1.2,1.3v2.7c0,0.9,0.5,1.3,1.2,1.3s1.2-0.4,1.2-1.3V46.7z"/>
				<path class="st1" d="M117,45.2C117,45.1,117,45.1,117,45.2c0-0.2,0.2-0.3,0.3-0.3c0.1,0,0.2,0,0.2,0.1l1.6,5.3l1.6-5.3      c0-0.1,0.1-0.1,0.2-0.1c0.2,0,0.3,0.1,0.3,0.3c0,0,0,0,0,0.1l-1.8,5.9c0,0.1-0.2,0.2-0.3,0.2c-0.1,0-0.3-0.1-0.3-0.2L117,45.2z"/>
				<path class="st1" d="M121.4,50.9C121.4,50.9,121.4,50.9,121.4,50.9l1.8-5.9c0-0.1,0.2-0.2,0.3-0.2c0.2,0,0.3,0.1,0.3,0.2      l1.8,5.9c0,0,0,0,0,0.1c0,0.1-0.2,0.3-0.3,0.3c-0.1,0-0.2,0-0.2-0.1l-0.4-1.3h-2.4L122,51c0,0.1-0.1,0.1-0.2,0.1      C121.6,51.2,121.4,51.1,121.4,50.9z M124.6,49.2l-1-3.5l-1.1,3.5H124.6z"/>
				<path class="st1" d="M129.3,44.8c0.1,0,0.2,0.1,0.2,0.3c0,0.1-0.1,0.3-0.2,0.3h-1.4v5.6c0,0.1-0.1,0.2-0.3,0.2      c-0.1,0-0.3-0.1-0.3-0.2v-5.6h-1.5c-0.1,0-0.2-0.1-0.2-0.3c0-0.1,0.1-0.3,0.2-0.3H129.3z"/>
				<path class="st1" d="M130.3,45.1c0-0.1,0.1-0.2,0.3-0.2c0.1,0,0.3,0.1,0.3,0.2v5.9c0,0.1-0.1,0.2-0.3,0.2      c-0.1,0-0.3-0.1-0.3-0.2V45.1z"/>
				<path class="st1" d="M132.2,49.4v-2.7c0-1.3,0.8-1.8,1.8-1.8s1.8,0.5,1.8,1.8v2.7c0,1.3-0.8,1.8-1.8,1.8S132.2,50.7,132.2,49.4z       M135.2,46.7c0-0.9-0.5-1.3-1.2-1.3s-1.2,0.4-1.2,1.3v2.7c0,0.9,0.5,1.3,1.2,1.3s1.2-0.4,1.2-1.3V46.7z"/>
				<path class="st1" d="M140.1,50.8l-2.4-4.7v4.8c0,0.1-0.1,0.2-0.3,0.2c-0.1,0-0.3-0.1-0.3-0.2v-5.9c0-0.2,0.1-0.2,0.3-0.2      c0.2,0,0.3,0.2,0.4,0.4l2.3,4.6v-4.8c0-0.1,0.1-0.2,0.3-0.2c0.1,0,0.3,0.1,0.3,0.2v5.9c0,0.1-0.1,0.2-0.3,0.2      C140.3,51.2,140.2,51,140.1,50.8z"/>
				<path class="st1" d="M143.9,45.1c0-0.1,0.1-0.2,0.2-0.2h1.6c1,0,1.8,0.5,1.8,1.8v0.1c0,1.3-0.8,1.8-1.8,1.8h-1.2v2.3      c0,0.1-0.1,0.2-0.3,0.2c-0.1,0-0.3-0.1-0.3-0.2V45.1z M144.5,45.4v2.7h1.2c0.8,0,1.2-0.4,1.2-1.3v-0.1c0-0.9-0.5-1.3-1.2-1.3      H144.5z"/>
				<path class="st1" d="M148.4,49.4v-2.7c0-1.3,0.8-1.8,1.8-1.8s1.8,0.5,1.8,1.8v2.7c0,1.3-0.8,1.8-1.8,1.8S148.4,50.7,148.4,49.4z       M151.5,46.7c0-0.9-0.5-1.3-1.2-1.3s-1.2,0.4-1.2,1.3v2.7c0,0.9,0.5,1.3,1.2,1.3s1.2-0.4,1.2-1.3V46.7z"/>
				<path class="st1" d="M156.4,45.1c0-0.1,0.1-0.2,0.3-0.2c0.1,0,0.3,0.1,0.3,0.2v4.3c0,1.3-0.8,1.8-1.8,1.8c-1,0-1.8-0.5-1.8-1.8      v-4.3c0-0.1,0.1-0.2,0.3-0.2c0.1,0,0.3,0.1,0.3,0.2v4.3c0,0.9,0.5,1.3,1.2,1.3s1.2-0.4,1.2-1.3V45.1z"/>
				<path class="st1" d="M158.3,45.1c0-0.1,0.1-0.2,0.2-0.2h1.5c1,0,1.9,0.4,1.9,1.7c0,1.1-0.6,1.5-1.3,1.7l1.3,2.6c0,0,0,0.1,0,0.1      c0,0.1-0.2,0.3-0.3,0.3c-0.1,0-0.2-0.2-0.3-0.3l-1.3-2.6h-1.1v2.7c0,0.1-0.1,0.2-0.3,0.2c-0.1,0-0.3-0.1-0.3-0.2V45.1z       M158.8,45.4v2.4h1.2c0.8,0,1.3-0.3,1.3-1.2c0-0.9-0.5-1.2-1.3-1.2H158.8z"/>
				<path class="st1" d="M164.9,51.2c-0.1,0-0.3-0.1-0.3-0.2v-5.9c0-0.1,0.1-0.2,0.3-0.2c0.1,0,0.3,0.1,0.3,0.2v5.6h2.5      c0.1,0,0.2,0.1,0.2,0.3c0,0.1-0.1,0.3-0.2,0.3H164.9z"/>
				<path class="st1" d="M169.3,47.8h1.4c0.1,0,0.2,0.1,0.2,0.3c0,0.1-0.1,0.2-0.2,0.2h-1.4v2.4h2.8c0.1,0,0.2,0.1,0.2,0.3      c0,0.1-0.1,0.3-0.2,0.3H169c-0.1,0-0.3-0.1-0.3-0.2v-5.9c0-0.1,0.1-0.2,0.3-0.2h3.1c0.2,0,0.2,0.1,0.2,0.3      c0,0.1-0.1,0.3-0.2,0.3h-2.8V47.8z"/>
				<path class="st1" d="M175,45.1c0-0.1,0.1-0.2,0.3-0.2h1.4c1,0,1.8,0.3,1.8,1.5c0,0.7-0.3,1.2-0.7,1.4c0.5,0.2,0.9,0.6,0.9,1.5      v0.2c0,1.3-0.8,1.8-1.7,1.8h-1.6c-0.2,0-0.3-0.1-0.3-0.2V45.1z M175.5,47.5h1.1c0.8,0,1.2-0.3,1.2-1.1c0-0.8-0.5-1-1.2-1h-1.1      V47.5z M176.8,50.6c0.8,0,1.2-0.4,1.2-1.3v-0.1c0-0.9-0.5-1.2-1.2-1.2h-1.3v2.7H176.8z"/>
				<path class="st1" d="M179.2,50.9C179.2,50.9,179.2,50.9,179.2,50.9L181,45c0-0.1,0.2-0.2,0.3-0.2c0.2,0,0.3,0.1,0.3,0.2l1.8,5.9      c0,0,0,0,0,0.1c0,0.1-0.2,0.3-0.3,0.3c-0.1,0-0.2,0-0.2-0.1l-0.4-1.3h-2.4l-0.4,1.3c0,0.1-0.1,0.1-0.2,0.1      C179.4,51.2,179.2,51.1,179.2,50.9z M180.4,43.8C180.4,43.8,180.4,43.9,180.4,43.8c-0.2,0-0.3-0.1-0.3-0.2c0-0.1,0-0.1,0.1-0.2      l0.9-0.5c0,0,0.1,0,0.1,0s0.1,0,0.1,0l0.9,0.5c0.1,0,0.1,0.1,0.1,0.2c0,0.1-0.1,0.2-0.2,0.2c0,0-0.1,0-0.1,0l-0.9-0.5      L180.4,43.8z M182.4,49.2l-1-3.5l-1.1,3.5H182.4z"/>
				<path class="st1" d="M187.1,44.8c0.1,0,0.2,0.1,0.2,0.3c0,0.1-0.1,0.3-0.2,0.3h-1.4v5.6c0,0.1-0.1,0.2-0.3,0.2      c-0.1,0-0.3-0.1-0.3-0.2v-5.6h-1.5c-0.1,0-0.2-0.1-0.2-0.3c0-0.1,0.1-0.3,0.2-0.3H187.1z"/>
				<path class="st1" d="M188.1,45.1c0-0.1,0.1-0.2,0.3-0.2c0.1,0,0.3,0.1,0.3,0.2v5.9c0,0.1-0.1,0.2-0.3,0.2      c-0.1,0-0.3-0.1-0.3-0.2V45.1z"/>
				<path class="st1" d="M192.5,48.8c-0.1,0.1-0.2,0.2-0.2,0.2s-0.2-0.1-0.2-0.2l-1.4-2.7v4.9c0,0.1-0.1,0.2-0.3,0.2      c-0.1,0-0.3-0.1-0.3-0.2v-5.8c0-0.2,0.1-0.3,0.3-0.3c0.2,0,0.3,0.2,0.5,0.4l1.5,2.9l1.5-2.9c0.1-0.2,0.3-0.4,0.5-0.4      c0.2,0,0.3,0.1,0.3,0.3v5.8c0,0.1-0.1,0.2-0.3,0.2c-0.1,0-0.3-0.1-0.3-0.2v-4.9L192.5,48.8z"/>
				<path class="st1" d="M196.5,47.8h1.4c0.1,0,0.2,0.1,0.2,0.3c0,0.1-0.1,0.2-0.2,0.2h-1.4v2.4h2.8c0.1,0,0.2,0.1,0.2,0.3      c0,0.1-0.1,0.3-0.2,0.3h-3.1c-0.1,0-0.3-0.1-0.3-0.2v-5.9c0-0.1,0.1-0.2,0.3-0.2h3.1c0.2,0,0.2,0.1,0.2,0.3      c0,0.1-0.1,0.3-0.2,0.3h-2.8V47.8z"/>
				<path class="st1" d="M203.3,50.8l-2.4-4.7v4.8c0,0.1-0.1,0.2-0.3,0.2c-0.1,0-0.3-0.1-0.3-0.2v-5.9c0-0.2,0.1-0.2,0.3-0.2      c0.2,0,0.3,0.2,0.4,0.4l2.3,4.6v-4.8c0-0.1,0.1-0.2,0.3-0.2c0.1,0,0.3,0.1,0.3,0.2v5.9c0,0.1-0.1,0.2-0.3,0.2      C203.5,51.2,203.4,51,203.3,50.8z"/>
				<path class="st1" d="M208.5,44.8c0.1,0,0.2,0.1,0.2,0.3c0,0.1-0.1,0.3-0.2,0.3H207v5.6c0,0.1-0.1,0.2-0.3,0.2      c-0.1,0-0.3-0.1-0.3-0.2v-5.6H205c-0.1,0-0.2-0.1-0.2-0.3c0-0.1,0.1-0.3,0.2-0.3H208.5z"/>
			</g>
		</g>
		<circle class="st0" cx="129.2" cy="16" r="2.1"/>
	</g>
</g>
</svg>